<svg viewBox="0 0 206 214" fill="none" xmlns="http://www.w3.org/2000/svg">
<path d="M73.0787 159.33C74.289 154.883 74.6773 152.21 74.3315 146.802C61.5128 145.918 54.5382 144.597 40.9241 146.802C37.8677 127.128 39.4509 120.256 40.9241 106.296H122.355L126.531 108.384C130.846 108.384 123.468 194.826 126.531 204.848C129.593 214.87 146.575 213.724 153.256 211.947C159.938 210.169 159.494 209.829 166.619 204.848C173.745 199.866 174.554 199.419 180.818 189.814C187.081 180.21 182.906 174.363 182.906 167.682C182.906 161 176.034 157.501 171.631 150.978C180.6 148.532 185.411 150.978 194.598 144.714C203.785 138.45 202.95 135.11 205.038 127.593C207.126 120.076 205.467 112.493 203.368 105.043C201.268 97.5929 189.603 89.1502 187.917 88.7569C179.279 86.051 174.15 85.7304 164.531 87.0865C169.914 81.3785 173.098 77.3469 179.147 68.2948C181.212 60.6011 181.42 57.2934 180.818 52.4263C179.053 44.5729 177.262 40.4104 173.301 33.217C169.342 29.8741 165.924 28.2343 157.85 25.7004C154.3 24.2796 150.558 24.4849 142.399 25.7004C133.538 28.5629 128.52 30.8136 119.431 36.5578C121.451 25.8877 121.749 19.9885 114.42 10.2495C109.095 5.47938 104.669 3.33162 94.7935 0.227236C87.0625 -0.22957 83.1696 -0.0857942 77.6722 1.48001C60.1961 10.6153 57.1356 17.8395 55.9574 29.0411L81.8481 30.2939L100.64 36.5578L114.42 46.1624L119.431 54.0967L118.179 58.2726L77.6722 85.4161L68.4852 76.6467L55.9574 73.7235C46.9303 73.4821 42.1402 73.7089 34.2426 74.9763L21.7148 78.7346L16.2861 85.4161L12.5278 93.3504L10.8574 105.043L12.5278 136.362L14.6157 148.055L17.5389 159.33L24.2204 164.341C40.1611 166.951 48.9067 167.102 64.3092 166.011C69.2325 164.574 71.3258 163.246 73.0787 159.33Z" fill="white"/>
<path d="M14.1981 24.4476C12.5278 24.03 3.61343 30.2634 0 34.8874C14.9563 30.7363 25.0202 29.552 45.9352 29.4587C42.3514 26.3945 39.6691 24.7978 27.9787 23.1948C22.3915 21.9034 15.8685 24.8652 14.1981 24.4476Z" fill="white"/>
</svg>
